<?xml version="1.0" encoding="UTF-8"?><svg width="128" height="128" version="1.1" viewBox="0 0 128 128" xmlns="http://www.w3.org/2000/svg" xmlns:xlink="http://www.w3.org/1999/xlink"><!--Generated by IJSVG (https://github.com/curthard89/IJSVG)--><defs><path d="M0,0h55v42h-55v-42Z" id="a"></path><path d="M4,4h47v34h-47v-34Z" id="b"></path></defs><g transform="scale(2.13333)"><g transform="matrix(1,0,0,1,-480,-1981)"><g transform="matrix(1,0,0,1,481,1982)"><use fill="#EDF0F1" fill-rule="evenodd" stroke="none" xlink:href="#a"></use><use fill="none" fill-rule="evenodd" stroke="#545E73" stroke-width="2" xlink:href="#a"></use><use fill="#545E73" fill-rule="evenodd" stroke="none" xlink:href="#b"></use><use fill="none" fill-rule="evenodd" stroke="#EDF0F1" stroke-width="2" xlink:href="#b"></use><path fill="#F4D65A" fill-rule="evenodd" stroke="none" d="M18.569,12.569c0,2.524 -2.046,4.569 -4.569,4.569c-2.523,0 -4.569,-2.045 -4.569,-4.569c0,-2.523 2.046,-4.569 4.569,-4.569c2.523,0 4.569,2.046 4.569,4.569"></path><path fill="#11A085" fill-rule="evenodd" stroke="none" d="M50,28.111l-1,-1.111l-12,-11l-10.5,11.5l9.5,9.5h14v-8.889"></path><path fill="#26B99A" fill-rule="evenodd" stroke="none" d="M5,37h31l-14.983,-14.983l-16.017,13.983v1"></path><path fill="#4AA0D8" fill-rule="evenodd" stroke="none" d="M37,31h22v22h-22v-22Z"></path><path fill="#FFF" fill-rule="evenodd" stroke="none" d="M47,37h2v16h-2v-16Z"></path><path fill="#FFF" fill-rule="evenodd" stroke="none" d="M53.293,43.707l-5.293,-5.293l-5.293,5.293l-1.414,-1.414l6.707,-6.707l6.707,6.707l-1.414,1.414"></path></g></g></g></svg>